<svg xmlns="http://www.w3.org/2000/svg" xmlns:xlink="http://www.w3.org/1999/xlink" width="394" zoomAndPan="magnify" viewBox="0 0 295.5 211.499994" height="282" preserveAspectRatio="xMidYMid meet" version="1.0"><defs><g/><clipPath id="70a811e50e"><path d="M 0.0976562 0 L 294.902344 0 L 294.902344 211 L 0.0976562 211 Z M 0.0976562 0 " clip-rule="nonzero"/></clipPath><clipPath id="70fd761b1c"><path d="M 118 81 L 219.179688 81 L 219.179688 143 L 118 143 Z M 118 81 " clip-rule="nonzero"/></clipPath><clipPath id="30ccc398bd"><path d="M 75.519531 0 L 208 0 L 208 149.644531 L 75.519531 149.644531 Z M 75.519531 0 " clip-rule="nonzero"/></clipPath></defs><g clip-path="url(#70a811e50e)"><path fill="#ffffff" d="M 0.0976562 0 L 294.902344 0 L 294.902344 211 L 0.0976562 211 Z M 0.0976562 0 " fill-opacity="1" fill-rule="nonzero"/></g><g clip-path="url(#70fd761b1c)"><path fill="#00c2cb" d="M 191.820312 117.515625 C 196.3125 109.660156 198.882812 100.5625 198.882812 90.867188 C 198.882812 87.664062 198.601562 84.523438 198.0625 81.476562 C 195.886719 93.570312 189.457031 104.191406 180.371094 111.722656 C 175.117188 116.078125 167.292969 115.195312 163.179688 109.746094 L 155.503906 99.574219 C 154.226562 97.882812 152.230469 96.886719 150.109375 96.886719 L 120.863281 96.886719 C 120.855469 96.886719 120.851562 96.890625 120.84375 96.890625 C 118.847656 96.902344 117.554688 99.007812 118.453125 100.796875 L 119.617188 103.113281 C 121.78125 107.425781 126.039062 110.289062 130.847656 110.667969 L 132.582031 110.804688 L 140.167969 111.402344 C 142.3125 111.574219 144.25 112.761719 145.371094 114.597656 L 148.8125 120.222656 L 150.738281 123.375 L 161.527344 141.019531 C 161.71875 141.335938 161.960938 141.613281 162.234375 141.839844 C 163.027344 142.503906 164.097656 142.777344 165.136719 142.523438 C 165.144531 142.519531 165.152344 142.515625 165.160156 142.515625 C 193.144531 135.609375 214.707031 112.394531 219.183594 83.527344 C 215.253906 98.335938 205.164062 110.636719 191.820312 117.515625 " fill-opacity="1" fill-rule="nonzero"/></g><g clip-path="url(#30ccc398bd)"><path fill="#003479" d="M 143.308594 115.859375 C 142.59375 114.6875 141.347656 113.921875 139.976562 113.8125 L 130.660156 113.082031 C 125.042969 112.636719 119.980469 109.234375 117.453125 104.199219 L 116.351562 102.003906 C 115.566406 100.445312 115.550781 98.574219 116.414062 97.058594 C 117.308594 95.492188 118.917969 94.527344 120.703125 94.472656 L 120.863281 94.46875 L 130.226562 94.46875 C 127.171875 89.648438 121.671875 86.9375 115.976562 87.472656 L 106.246094 88.378906 C 102.078125 88.769531 98.335938 85.898438 97.566406 81.78125 C 96.996094 78.730469 96.699219 75.585938 96.699219 72.371094 C 96.699219 56.066406 104.335938 41.550781 116.226562 32.195312 C 104.445312 39.949219 95.28125 51.347656 90.332031 64.789062 C 94.789062 32.414062 122.5625 7.472656 156.164062 7.472656 C 176.964844 7.472656 195.53125 17.03125 207.714844 31.992188 C 194.765625 12.8125 172.851562 0.183594 147.980469 0.117188 C 108.175781 0.015625 75.597656 32.453125 75.539062 72.261719 C 75.515625 86.273438 79.492188 99.355469 86.378906 110.441406 C 86.523438 110.675781 86.664062 110.910156 86.8125 111.144531 L 96.457031 109.507812 C 100.765625 108.777344 104.3125 112.941406 102.847656 117.0625 C 102.808594 117.171875 102.78125 117.234375 102.78125 117.234375 C 108.988281 119.492188 107.941406 125.542969 107.941406 125.542969 C 113.425781 128.042969 111.167969 133.203125 111.167969 133.203125 C 113.105469 134.003906 113.785156 135.570312 113.960938 136.085938 C 114.050781 136.347656 114.152344 136.605469 114.25 136.863281 L 118 146.484375 C 118.644531 148.140625 120.625 149.492188 122.402344 149.492188 C 124.644531 149.492188 126.195312 147.253906 125.40625 145.15625 L 123.652344 140.484375 L 121.308594 134.253906 C 121.144531 133.816406 121.441406 133.339844 121.917969 133.308594 C 122.226562 133.285156 122.511719 133.488281 122.628906 133.773438 L 125.707031 141.179688 L 127.980469 146.664062 C 128.765625 148.550781 130.835938 149.632812 132.796875 149.058594 C 135.148438 148.375 136.320312 145.742188 135.257812 143.535156 C 135.257812 143.535156 135.253906 143.53125 135.253906 143.53125 L 129.621094 131.894531 C 129.378906 131.394531 129.710938 130.808594 130.261719 130.753906 C 130.582031 130.722656 130.886719 130.886719 131.039062 131.167969 L 137.894531 143.945312 L 138.746094 145.527344 C 139.582031 147.089844 141.417969 147.90625 143.101562 147.347656 C 144.410156 146.914062 145.28125 145.820312 145.511719 144.582031 C 145.652344 143.828125 145.558594 143.019531 145.171875 142.277344 L 139.808594 131.878906 C 139.574219 131.421875 139.746094 130.835938 140.222656 130.640625 C 140.644531 130.464844 141.113281 130.644531 141.320312 131.035156 L 147.382812 142.488281 C 147.875 143.410156 148.605469 144.128906 149.457031 144.601562 C 150.878906 145.390625 152.640625 145.503906 154.214844 144.761719 C 154.515625 144.617188 154.792969 144.445312 155.054688 144.257812 C 157.203125 142.695312 157.878906 139.691406 156.4375 137.332031 L 143.308594 115.859375 " fill-opacity="1" fill-rule="nonzero"/></g><path fill="#00c2cb" d="M 90.894531 120.203125 L 98.480469 118.941406 C 100.757812 118.566406 102.296875 116.414062 101.921875 114.136719 C 101.542969 111.859375 99.390625 110.320312 97.113281 110.699219 L 89.527344 111.957031 C 87.25 112.335938 85.710938 114.488281 86.089844 116.761719 C 86.46875 119.039062 88.621094 120.578125 90.894531 120.203125 " fill-opacity="1" fill-rule="nonzero"/><path fill="#00c2cb" d="M 105.789062 122.363281 C 105.414062 120.085938 103.261719 118.546875 100.984375 118.925781 L 90.628906 120.902344 C 88.355469 121.28125 86.8125 123.433594 87.191406 125.710938 C 87.570312 127.984375 89.722656 129.527344 91.996094 129.148438 L 102.351562 127.167969 C 104.628906 126.789062 106.167969 124.636719 105.789062 122.363281 " fill-opacity="1" fill-rule="nonzero"/><path fill="#00c2cb" d="M 109.285156 130.964844 C 108.90625 128.6875 106.757812 127.148438 104.480469 127.527344 L 96.894531 128.785156 C 94.617188 129.160156 93.078125 131.3125 93.453125 133.589844 C 93.832031 135.867188 95.984375 137.40625 98.261719 137.027344 L 105.847656 135.769531 C 108.125 135.390625 109.664062 133.242188 109.285156 130.964844 " fill-opacity="1" fill-rule="nonzero"/><path fill="#00c2cb" d="M 109.746094 135.589844 L 103.519531 136.582031 C 101.242188 136.957031 99.703125 139.109375 100.078125 141.386719 C 100.457031 143.664062 102.609375 145.203125 104.886719 144.824219 L 111.117188 143.835938 C 113.390625 143.457031 114.929688 141.304688 114.554688 139.027344 C 114.175781 136.75 112.023438 135.210938 109.746094 135.589844 " fill-opacity="1" fill-rule="nonzero"/><g fill="#003479" fill-opacity="1"><g transform="translate(23.400345, 188.987632)"><g><path d="M 9.40625 -21.515625 C 10.78125 -21.515625 12.039062 -21.300781 13.1875 -20.875 C 14.34375 -20.457031 15.34375 -19.863281 16.1875 -19.09375 C 17.039062 -18.332031 17.703125 -17.429688 18.171875 -16.390625 C 18.640625 -15.359375 18.875 -14.222656 18.875 -12.984375 C 18.875 -11.742188 18.640625 -10.609375 18.171875 -9.578125 C 17.703125 -8.546875 17.039062 -7.65625 16.1875 -6.90625 C 15.34375 -6.15625 14.34375 -5.570312 13.1875 -5.15625 C 12.039062 -4.75 10.78125 -4.546875 9.40625 -4.546875 L 6.578125 -4.546875 L 6.578125 -0.609375 C 6.578125 -0.429688 6.519531 -0.28125 6.40625 -0.15625 C 6.289062 -0.0390625 6.128906 0.015625 5.921875 0.015625 L 3.203125 0.015625 C 3.003906 0.015625 2.847656 -0.0390625 2.734375 -0.15625 C 2.617188 -0.269531 2.5625 -0.421875 2.5625 -0.609375 L 2.5625 -20.890625 C 2.5625 -21.078125 2.617188 -21.226562 2.734375 -21.34375 C 2.859375 -21.457031 3.015625 -21.515625 3.203125 -21.515625 L 4.65625 -21.515625 C 4.945312 -21.515625 5.210938 -21.515625 5.453125 -21.515625 C 5.691406 -21.515625 5.867188 -21.515625 5.984375 -21.515625 Z M 9.140625 -8.0625 C 9.972656 -8.0625 10.738281 -8.175781 11.4375 -8.40625 C 12.132812 -8.644531 12.738281 -8.984375 13.25 -9.421875 C 13.769531 -9.867188 14.171875 -10.394531 14.453125 -11 C 14.734375 -11.601562 14.875 -12.273438 14.875 -13.015625 C 14.875 -13.742188 14.734375 -14.410156 14.453125 -15.015625 C 14.171875 -15.617188 13.769531 -16.144531 13.25 -16.59375 C 12.738281 -17.039062 12.132812 -17.382812 11.4375 -17.625 C 10.738281 -17.875 9.972656 -18 9.140625 -18 L 6.578125 -18 L 6.578125 -8.0625 Z M 9.140625 -8.0625 "/></g></g></g><g fill="#003479" fill-opacity="1"><g transform="translate(46.398739, 188.987632)"><g><path d="M 20.828125 -0.6875 C 20.921875 -0.476562 20.925781 -0.304688 20.84375 -0.171875 C 20.757812 -0.0351562 20.597656 0.03125 20.359375 0.03125 L 17.3125 0.03125 C 17.15625 0.03125 17.007812 -0.0195312 16.875 -0.125 C 16.75 -0.238281 16.65625 -0.375 16.59375 -0.53125 L 15.734375 -2.625 L 5.84375 -2.625 L 4.984375 -0.53125 C 4.921875 -0.382812 4.828125 -0.253906 4.703125 -0.140625 C 4.578125 -0.0351562 4.425781 0.015625 4.25 0.015625 L 1.21875 0.015625 C 0.976562 0.015625 0.8125 -0.046875 0.71875 -0.171875 C 0.632812 -0.304688 0.640625 -0.484375 0.734375 -0.703125 L 9.890625 -21.234375 C 9.972656 -21.410156 10.085938 -21.546875 10.234375 -21.640625 C 10.378906 -21.742188 10.523438 -21.796875 10.671875 -21.796875 L 10.859375 -21.796875 C 11.023438 -21.796875 11.175781 -21.742188 11.3125 -21.640625 C 11.457031 -21.535156 11.566406 -21.394531 11.640625 -21.21875 Z M 7.25 -6.046875 L 14.3125 -6.046875 L 10.796875 -14.609375 Z M 7.25 -6.046875 "/></g></g></g><g fill="#003479" fill-opacity="1"><g transform="translate(70.870092, 188.987632)"><g><path d="M 16.078125 -6.359375 L 18.953125 -0.71875 C 19.054688 -0.507812 19.070312 -0.332031 19 -0.1875 C 18.925781 -0.0507812 18.773438 0.015625 18.546875 0.015625 L 15.4375 0.015625 C 15.300781 0.015625 15.164062 -0.03125 15.03125 -0.125 C 14.894531 -0.226562 14.789062 -0.359375 14.71875 -0.515625 L 12.484375 -5.0625 C 12.253906 -5.03125 12.015625 -5.003906 11.765625 -4.984375 C 11.523438 -4.972656 11.273438 -4.96875 11.015625 -4.96875 L 6.578125 -4.96875 L 6.578125 -0.609375 C 6.578125 -0.421875 6.515625 -0.269531 6.390625 -0.15625 C 6.265625 -0.0390625 6.109375 0.015625 5.921875 0.015625 L 3.203125 0.015625 C 3.023438 0.015625 2.875 -0.0390625 2.75 -0.15625 C 2.625 -0.269531 2.5625 -0.421875 2.5625 -0.609375 L 2.5625 -20.90625 C 2.5625 -21.082031 2.625 -21.226562 2.75 -21.34375 C 2.875 -21.457031 3.023438 -21.515625 3.203125 -21.515625 L 3.90625 -21.515625 C 4.320312 -21.515625 4.726562 -21.515625 5.125 -21.515625 C 5.53125 -21.515625 5.816406 -21.515625 5.984375 -21.515625 L 11.015625 -21.515625 C 12.285156 -21.515625 13.445312 -21.304688 14.5 -20.890625 C 15.5625 -20.484375 16.476562 -19.90625 17.25 -19.15625 C 18.03125 -18.414062 18.632812 -17.535156 19.0625 -16.515625 C 19.5 -15.492188 19.71875 -14.378906 19.71875 -13.171875 C 19.71875 -11.703125 19.390625 -10.378906 18.734375 -9.203125 C 18.078125 -8.035156 17.191406 -7.085938 16.078125 -6.359375 Z M 10.765625 -8.3125 C 11.722656 -8.3125 12.570312 -8.519531 13.3125 -8.9375 C 14.0625 -9.351562 14.648438 -9.925781 15.078125 -10.65625 C 15.503906 -11.394531 15.71875 -12.242188 15.71875 -13.203125 C 15.71875 -13.898438 15.59375 -14.539062 15.34375 -15.125 C 15.09375 -15.707031 14.742188 -16.210938 14.296875 -16.640625 C 13.859375 -17.078125 13.335938 -17.414062 12.734375 -17.65625 C 12.128906 -17.894531 11.472656 -18.015625 10.765625 -18.015625 L 6.578125 -18.015625 L 6.578125 -8.3125 Z M 10.765625 -8.3125 "/></g></g></g><g fill="#003479" fill-opacity="1"><g transform="translate(95.256466, 188.987632)"><g><path d="M 0.828125 -18.65625 L 0.828125 -20.890625 C 0.828125 -21.304688 1.035156 -21.515625 1.453125 -21.515625 L 16.203125 -21.515625 C 16.390625 -21.515625 16.535156 -21.457031 16.640625 -21.34375 C 16.753906 -21.226562 16.8125 -21.078125 16.8125 -20.890625 L 16.8125 -18.65625 C 16.8125 -18.226562 16.609375 -18.015625 16.203125 -18.015625 L 10.796875 -18.015625 L 10.796875 -0.609375 C 10.796875 -0.191406 10.585938 0.015625 10.171875 0.015625 L 7.4375 0.015625 C 7.019531 0.015625 6.8125 -0.191406 6.8125 -0.609375 L 6.8125 -18.015625 L 1.453125 -18.015625 C 1.265625 -18.015625 1.113281 -18.066406 1 -18.171875 C 0.882812 -18.285156 0.828125 -18.445312 0.828125 -18.65625 Z M 0.828125 -18.65625 "/></g></g></g><g fill="#003479" fill-opacity="1"><g transform="translate(115.804644, 188.987632)"><g><path d="M 21.234375 -21.53125 C 21.554688 -21.53125 21.71875 -21.378906 21.71875 -21.078125 L 21.71875 -0.375 C 21.71875 -0.175781 21.660156 -0.0195312 21.546875 0.09375 C 21.441406 0.21875 21.316406 0.28125 21.171875 0.28125 L 21.140625 0.28125 C 20.960938 0.28125 20.8125 0.226562 20.6875 0.125 C 20.5625 0.0195312 20.421875 -0.0976562 20.265625 -0.234375 L 6.578125 -13.21875 L 6.578125 -0.453125 C 6.578125 -0.140625 6.421875 0.015625 6.109375 0.015625 L 3.046875 0.015625 C 2.722656 0.015625 2.5625 -0.140625 2.5625 -0.453125 L 2.5625 -21.171875 C 2.5625 -21.347656 2.609375 -21.492188 2.703125 -21.609375 C 2.804688 -21.734375 2.9375 -21.796875 3.09375 -21.796875 L 3.140625 -21.796875 C 3.296875 -21.796875 3.425781 -21.742188 3.53125 -21.640625 C 3.644531 -21.535156 3.78125 -21.414062 3.9375 -21.28125 L 17.734375 -8.234375 L 17.734375 -21.078125 C 17.734375 -21.378906 17.890625 -21.53125 18.203125 -21.53125 Z M 21.234375 -21.53125 "/></g></g></g><g fill="#003479" fill-opacity="1"><g transform="translate(142.995311, 188.987632)"><g><path d="M 18.140625 -3.796875 C 18.398438 -3.796875 18.609375 -3.722656 18.765625 -3.578125 C 18.921875 -3.441406 19 -3.25 19 -3 L 19 -0.625 C 19 -0.4375 18.941406 -0.285156 18.828125 -0.171875 C 18.710938 -0.0546875 18.554688 0 18.359375 0 L 3.203125 0 C 2.773438 0 2.5625 -0.207031 2.5625 -0.625 L 2.5625 -20.875 C 2.5625 -21.300781 2.773438 -21.515625 3.203125 -21.515625 L 18.046875 -21.515625 C 18.253906 -21.515625 18.414062 -21.457031 18.53125 -21.34375 C 18.644531 -21.226562 18.703125 -21.078125 18.703125 -20.890625 L 18.703125 -18.359375 C 18.703125 -17.929688 18.484375 -17.71875 18.046875 -17.71875 L 6.578125 -17.71875 L 6.578125 -11.78125 L 15.5625 -11.78125 C 15.800781 -11.78125 15.984375 -11.722656 16.109375 -11.609375 C 16.242188 -11.492188 16.3125 -11.328125 16.3125 -11.109375 L 16.3125 -8.75 C 16.3125 -8.5625 16.242188 -8.40625 16.109375 -8.28125 C 15.984375 -8.164062 15.800781 -8.109375 15.5625 -8.109375 L 6.578125 -8.109375 L 6.578125 -3.796875 Z M 18.140625 -3.796875 "/></g></g></g><g fill="#003479" fill-opacity="1"><g transform="translate(166.347782, 188.987632)"><g><path d="M 16.078125 -6.359375 L 18.953125 -0.71875 C 19.054688 -0.507812 19.070312 -0.332031 19 -0.1875 C 18.925781 -0.0507812 18.773438 0.015625 18.546875 0.015625 L 15.4375 0.015625 C 15.300781 0.015625 15.164062 -0.03125 15.03125 -0.125 C 14.894531 -0.226562 14.789062 -0.359375 14.71875 -0.515625 L 12.484375 -5.0625 C 12.253906 -5.03125 12.015625 -5.003906 11.765625 -4.984375 C 11.523438 -4.972656 11.273438 -4.96875 11.015625 -4.96875 L 6.578125 -4.96875 L 6.578125 -0.609375 C 6.578125 -0.421875 6.515625 -0.269531 6.390625 -0.15625 C 6.265625 -0.0390625 6.109375 0.015625 5.921875 0.015625 L 3.203125 0.015625 C 3.023438 0.015625 2.875 -0.0390625 2.75 -0.15625 C 2.625 -0.269531 2.5625 -0.421875 2.5625 -0.609375 L 2.5625 -20.90625 C 2.5625 -21.082031 2.625 -21.226562 2.75 -21.34375 C 2.875 -21.457031 3.023438 -21.515625 3.203125 -21.515625 L 3.90625 -21.515625 C 4.320312 -21.515625 4.726562 -21.515625 5.125 -21.515625 C 5.53125 -21.515625 5.816406 -21.515625 5.984375 -21.515625 L 11.015625 -21.515625 C 12.285156 -21.515625 13.445312 -21.304688 14.5 -20.890625 C 15.5625 -20.484375 16.476562 -19.90625 17.25 -19.15625 C 18.03125 -18.414062 18.632812 -17.535156 19.0625 -16.515625 C 19.5 -15.492188 19.71875 -14.378906 19.71875 -13.171875 C 19.71875 -11.703125 19.390625 -10.378906 18.734375 -9.203125 C 18.078125 -8.035156 17.191406 -7.085938 16.078125 -6.359375 Z M 10.765625 -8.3125 C 11.722656 -8.3125 12.570312 -8.519531 13.3125 -8.9375 C 14.0625 -9.351562 14.648438 -9.925781 15.078125 -10.65625 C 15.503906 -11.394531 15.71875 -12.242188 15.71875 -13.203125 C 15.71875 -13.898438 15.59375 -14.539062 15.34375 -15.125 C 15.09375 -15.707031 14.742188 -16.210938 14.296875 -16.640625 C 13.859375 -17.078125 13.335938 -17.414062 12.734375 -17.65625 C 12.128906 -17.894531 11.472656 -18.015625 10.765625 -18.015625 L 6.578125 -18.015625 L 6.578125 -8.3125 Z M 10.765625 -8.3125 "/></g></g></g><g fill="#003479" fill-opacity="1"><g transform="translate(190.734151, 188.987632)"><g><path d="M 9.71875 0.34375 C 8.90625 0.34375 8.097656 0.253906 7.296875 0.078125 C 6.492188 -0.0976562 5.726562 -0.34375 5 -0.65625 C 4.28125 -0.976562 3.625 -1.359375 3.03125 -1.796875 C 2.445312 -2.242188 1.960938 -2.726562 1.578125 -3.25 C 1.472656 -3.382812 1.425781 -3.535156 1.4375 -3.703125 C 1.457031 -3.867188 1.546875 -4.023438 1.703125 -4.171875 L 3.546875 -6.015625 C 3.671875 -6.140625 3.816406 -6.1875 3.984375 -6.15625 C 4.148438 -6.132812 4.316406 -6.046875 4.484375 -5.890625 C 4.910156 -5.441406 5.398438 -5.035156 5.953125 -4.671875 C 6.515625 -4.304688 7.109375 -4.015625 7.734375 -3.796875 C 8.359375 -3.585938 8.96875 -3.484375 9.5625 -3.484375 C 10.769531 -3.484375 11.691406 -3.71875 12.328125 -4.1875 C 12.972656 -4.664062 13.296875 -5.316406 13.296875 -6.140625 C 13.296875 -6.648438 13.117188 -7.085938 12.765625 -7.453125 C 12.410156 -7.816406 11.894531 -8.148438 11.21875 -8.453125 C 10.550781 -8.753906 9.734375 -9.070312 8.765625 -9.40625 C 7.742188 -9.726562 6.835938 -10.082031 6.046875 -10.46875 C 5.253906 -10.851562 4.578125 -11.289062 4.015625 -11.78125 C 3.460938 -12.269531 3.039062 -12.835938 2.75 -13.484375 C 2.46875 -14.140625 2.328125 -14.90625 2.328125 -15.78125 C 2.328125 -16.988281 2.625 -18.046875 3.21875 -18.953125 C 3.820312 -19.859375 4.671875 -20.5625 5.765625 -21.0625 C 6.867188 -21.570312 8.171875 -21.828125 9.671875 -21.828125 C 10.484375 -21.828125 11.273438 -21.722656 12.046875 -21.515625 C 12.828125 -21.316406 13.539062 -21.035156 14.1875 -20.671875 C 14.84375 -20.316406 15.375 -19.894531 15.78125 -19.40625 C 15.9375 -19.238281 16.015625 -19.0625 16.015625 -18.875 C 16.023438 -18.6875 15.960938 -18.515625 15.828125 -18.359375 L 14.34375 -16.65625 C 14.144531 -16.414062 13.945312 -16.304688 13.75 -16.328125 C 13.550781 -16.359375 13.335938 -16.445312 13.109375 -16.59375 C 12.628906 -17.050781 12.0625 -17.40625 11.40625 -17.65625 C 10.75 -17.90625 10.109375 -18.03125 9.484375 -18.03125 C 8.453125 -18.03125 7.65625 -17.8125 7.09375 -17.375 C 6.53125 -16.945312 6.25 -16.398438 6.25 -15.734375 C 6.25 -15.191406 6.453125 -14.726562 6.859375 -14.34375 C 7.265625 -13.96875 7.8125 -13.628906 8.5 -13.328125 C 9.1875 -13.023438 9.953125 -12.734375 10.796875 -12.453125 C 11.660156 -12.160156 12.488281 -11.847656 13.28125 -11.515625 C 14.070312 -11.191406 14.78125 -10.796875 15.40625 -10.328125 C 16.03125 -9.867188 16.523438 -9.300781 16.890625 -8.625 C 17.253906 -7.957031 17.4375 -7.148438 17.4375 -6.203125 C 17.4375 -5.203125 17.242188 -4.296875 16.859375 -3.484375 C 16.484375 -2.679688 15.953125 -1.992188 15.265625 -1.421875 C 14.585938 -0.847656 13.773438 -0.410156 12.828125 -0.109375 C 11.878906 0.191406 10.84375 0.34375 9.71875 0.34375 Z M 9.71875 0.34375 "/></g></g></g><g fill="#003479" fill-opacity="1"><g transform="translate(212.429549, 188.987632)"><g><path d="M 20.78125 -21.53125 C 21.101562 -21.53125 21.265625 -21.375 21.265625 -21.0625 L 21.265625 -0.453125 C 21.265625 -0.140625 21.101562 0.015625 20.78125 0.015625 L 17.734375 0.015625 C 17.429688 0.015625 17.28125 -0.140625 17.28125 -0.453125 L 17.28125 -6.84375 L 6.578125 -6.84375 L 6.578125 -0.453125 C 6.578125 -0.140625 6.421875 0.015625 6.109375 0.015625 L 3.046875 0.015625 C 2.722656 0.015625 2.5625 -0.140625 2.5625 -0.453125 L 2.5625 -21.0625 C 2.5625 -21.375 2.722656 -21.53125 3.046875 -21.53125 L 6.109375 -21.53125 C 6.421875 -21.53125 6.578125 -21.375 6.578125 -21.0625 L 6.578125 -10.34375 L 17.28125 -10.34375 L 17.28125 -21.0625 C 17.28125 -21.375 17.429688 -21.53125 17.734375 -21.53125 Z M 20.78125 -21.53125 "/></g></g></g><g fill="#003479" fill-opacity="1"><g transform="translate(239.166998, 188.987632)"><g><path d="M 6.5625 -21.0625 L 6.5625 -0.453125 C 6.5625 -0.140625 6.398438 0.015625 6.078125 0.015625 L 3.03125 0.015625 C 2.71875 0.015625 2.5625 -0.140625 2.5625 -0.453125 L 2.5625 -21.0625 C 2.5625 -21.375 2.71875 -21.53125 3.03125 -21.53125 L 6.078125 -21.53125 C 6.398438 -21.53125 6.5625 -21.375 6.5625 -21.0625 Z M 6.5625 -21.0625 "/></g></g></g><g fill="#003479" fill-opacity="1"><g transform="translate(251.189016, 188.987632)"><g><path d="M 9.40625 -21.515625 C 10.78125 -21.515625 12.039062 -21.300781 13.1875 -20.875 C 14.34375 -20.457031 15.34375 -19.863281 16.1875 -19.09375 C 17.039062 -18.332031 17.703125 -17.429688 18.171875 -16.390625 C 18.640625 -15.359375 18.875 -14.222656 18.875 -12.984375 C 18.875 -11.742188 18.640625 -10.609375 18.171875 -9.578125 C 17.703125 -8.546875 17.039062 -7.65625 16.1875 -6.90625 C 15.34375 -6.15625 14.34375 -5.570312 13.1875 -5.15625 C 12.039062 -4.75 10.78125 -4.546875 9.40625 -4.546875 L 6.578125 -4.546875 L 6.578125 -0.609375 C 6.578125 -0.429688 6.519531 -0.28125 6.40625 -0.15625 C 6.289062 -0.0390625 6.128906 0.015625 5.921875 0.015625 L 3.203125 0.015625 C 3.003906 0.015625 2.847656 -0.0390625 2.734375 -0.15625 C 2.617188 -0.269531 2.5625 -0.421875 2.5625 -0.609375 L 2.5625 -20.890625 C 2.5625 -21.078125 2.617188 -21.226562 2.734375 -21.34375 C 2.859375 -21.457031 3.015625 -21.515625 3.203125 -21.515625 L 4.65625 -21.515625 C 4.945312 -21.515625 5.210938 -21.515625 5.453125 -21.515625 C 5.691406 -21.515625 5.867188 -21.515625 5.984375 -21.515625 Z M 9.140625 -8.0625 C 9.972656 -8.0625 10.738281 -8.175781 11.4375 -8.40625 C 12.132812 -8.644531 12.738281 -8.984375 13.25 -9.421875 C 13.769531 -9.867188 14.171875 -10.394531 14.453125 -11 C 14.734375 -11.601562 14.875 -12.273438 14.875 -13.015625 C 14.875 -13.742188 14.734375 -14.410156 14.453125 -15.015625 C 14.171875 -15.617188 13.769531 -16.144531 13.25 -16.59375 C 12.738281 -17.039062 12.132812 -17.382812 11.4375 -17.625 C 10.738281 -17.875 9.972656 -18 9.140625 -18 L 6.578125 -18 L 6.578125 -8.0625 Z M 9.140625 -8.0625 "/></g></g></g><g fill="#545454" fill-opacity="1"><g transform="translate(88.735821, 205.192008)"><g><path d="M 1.875 -6.015625 L 1.875 -0.125 C 1.875 -0.0390625 1.828125 0 1.734375 0 L 0.859375 0 C 0.773438 0 0.734375 -0.0390625 0.734375 -0.125 L 0.734375 -6.015625 C 0.734375 -6.109375 0.773438 -6.15625 0.859375 -6.15625 L 1.734375 -6.15625 C 1.828125 -6.15625 1.875 -6.109375 1.875 -6.015625 Z M 1.875 -6.015625 "/></g></g></g><g fill="#545454" fill-opacity="1"><g transform="translate(97.97307, 205.192008)"><g><path d="M 6.0625 -6.15625 C 6.15625 -6.15625 6.203125 -6.109375 6.203125 -6.015625 L 6.203125 -0.109375 C 6.203125 -0.046875 6.1875 0 6.15625 0.03125 C 6.125 0.0625 6.085938 0.078125 6.046875 0.078125 L 6.03125 0.078125 C 5.976562 0.078125 5.9375 0.0625 5.90625 0.03125 C 5.875 0 5.832031 -0.03125 5.78125 -0.0625 L 1.875 -3.78125 L 1.875 -0.125 C 1.875 -0.0390625 1.832031 0 1.75 0 L 0.875 0 C 0.78125 0 0.734375 -0.0390625 0.734375 -0.125 L 0.734375 -6.046875 C 0.734375 -6.097656 0.742188 -6.140625 0.765625 -6.171875 C 0.796875 -6.203125 0.832031 -6.21875 0.875 -6.21875 L 0.890625 -6.21875 C 0.941406 -6.21875 0.984375 -6.203125 1.015625 -6.171875 C 1.046875 -6.148438 1.082031 -6.117188 1.125 -6.078125 L 5.0625 -2.34375 L 5.0625 -6.015625 C 5.0625 -6.109375 5.109375 -6.15625 5.203125 -6.15625 Z M 6.0625 -6.15625 "/></g></g></g><g fill="#545454" fill-opacity="1"><g transform="translate(111.544833, 205.192008)"><g><path d="M 5.84375 -6.140625 C 5.914062 -6.140625 5.960938 -6.117188 5.984375 -6.078125 C 6.003906 -6.046875 6.003906 -6 5.984375 -5.9375 L 3.34375 -0.09375 C 3.28125 0.03125 3.203125 0.09375 3.109375 0.09375 L 3.09375 0.09375 C 2.976562 0.09375 2.894531 0.03125 2.84375 -0.09375 L 0.21875 -5.9375 C 0.1875 -6 0.179688 -6.046875 0.203125 -6.078125 C 0.234375 -6.117188 0.285156 -6.140625 0.359375 -6.140625 L 1.21875 -6.140625 C 1.269531 -6.140625 1.3125 -6.125 1.34375 -6.09375 C 1.382812 -6.0625 1.410156 -6.023438 1.421875 -5.984375 L 3.09375 -2.109375 L 4.765625 -5.984375 C 4.785156 -6.035156 4.8125 -6.070312 4.84375 -6.09375 C 4.882812 -6.125 4.929688 -6.140625 4.984375 -6.140625 Z M 5.84375 -6.140625 "/></g></g></g><g fill="#545454" fill-opacity="1"><g transform="translate(124.375966, 205.192008)"><g><path d="M 5.1875 -1.078125 C 5.257812 -1.078125 5.316406 -1.054688 5.359375 -1.015625 C 5.398438 -0.984375 5.421875 -0.929688 5.421875 -0.859375 L 5.421875 -0.171875 C 5.421875 -0.117188 5.40625 -0.078125 5.375 -0.046875 C 5.34375 -0.015625 5.296875 0 5.234375 0 L 0.90625 0 C 0.789062 0 0.734375 -0.0546875 0.734375 -0.171875 L 0.734375 -5.953125 C 0.734375 -6.078125 0.789062 -6.140625 0.90625 -6.140625 L 5.15625 -6.140625 C 5.21875 -6.140625 5.265625 -6.125 5.296875 -6.09375 C 5.328125 -6.0625 5.34375 -6.019531 5.34375 -5.96875 L 5.34375 -5.25 C 5.34375 -5.125 5.28125 -5.0625 5.15625 -5.0625 L 1.875 -5.0625 L 1.875 -3.359375 L 4.4375 -3.359375 C 4.507812 -3.359375 4.5625 -3.34375 4.59375 -3.3125 C 4.632812 -3.28125 4.65625 -3.234375 4.65625 -3.171875 L 4.65625 -2.5 C 4.65625 -2.445312 4.632812 -2.398438 4.59375 -2.359375 C 4.5625 -2.328125 4.507812 -2.3125 4.4375 -2.3125 L 1.875 -2.3125 L 1.875 -1.078125 Z M 5.1875 -1.078125 "/></g></g></g><g fill="#545454" fill-opacity="1"><g transform="translate(136.850946, 205.192008)"><g><path d="M 2.78125 0.09375 C 2.539062 0.09375 2.304688 0.0664062 2.078125 0.015625 C 1.847656 -0.0234375 1.628906 -0.09375 1.421875 -0.1875 C 1.222656 -0.28125 1.035156 -0.390625 0.859375 -0.515625 C 0.691406 -0.640625 0.554688 -0.78125 0.453125 -0.9375 C 0.421875 -0.96875 0.40625 -1.003906 0.40625 -1.046875 C 0.414062 -1.097656 0.441406 -1.144531 0.484375 -1.1875 L 1.015625 -1.71875 C 1.046875 -1.75 1.082031 -1.757812 1.125 -1.75 C 1.175781 -1.75 1.226562 -1.726562 1.28125 -1.6875 C 1.40625 -1.550781 1.546875 -1.429688 1.703125 -1.328125 C 1.859375 -1.222656 2.023438 -1.140625 2.203125 -1.078125 C 2.378906 -1.023438 2.554688 -1 2.734375 -1 C 3.078125 -1 3.335938 -1.066406 3.515625 -1.203125 C 3.703125 -1.335938 3.796875 -1.519531 3.796875 -1.75 C 3.796875 -1.894531 3.742188 -2.019531 3.640625 -2.125 C 3.546875 -2.226562 3.398438 -2.320312 3.203125 -2.40625 C 3.015625 -2.5 2.78125 -2.59375 2.5 -2.6875 C 2.207031 -2.78125 1.945312 -2.878906 1.71875 -2.984375 C 1.5 -3.097656 1.304688 -3.222656 1.140625 -3.359375 C 0.984375 -3.503906 0.863281 -3.664062 0.78125 -3.84375 C 0.695312 -4.03125 0.65625 -4.25 0.65625 -4.5 C 0.65625 -4.851562 0.738281 -5.15625 0.90625 -5.40625 C 1.082031 -5.664062 1.328125 -5.867188 1.640625 -6.015625 C 1.960938 -6.160156 2.335938 -6.234375 2.765625 -6.234375 C 2.992188 -6.234375 3.21875 -6.203125 3.4375 -6.140625 C 3.664062 -6.085938 3.867188 -6.007812 4.046875 -5.90625 C 4.234375 -5.800781 4.390625 -5.679688 4.515625 -5.546875 C 4.554688 -5.492188 4.578125 -5.441406 4.578125 -5.390625 C 4.578125 -5.335938 4.554688 -5.285156 4.515625 -5.234375 L 4.09375 -4.75 C 4.039062 -4.6875 3.984375 -4.65625 3.921875 -4.65625 C 3.867188 -4.664062 3.8125 -4.691406 3.75 -4.734375 C 3.601562 -4.867188 3.4375 -4.96875 3.25 -5.03125 C 3.0625 -5.101562 2.878906 -5.140625 2.703125 -5.140625 C 2.410156 -5.140625 2.179688 -5.078125 2.015625 -4.953125 C 1.859375 -4.835938 1.78125 -4.6875 1.78125 -4.5 C 1.78125 -4.34375 1.835938 -4.207031 1.953125 -4.09375 C 2.066406 -3.988281 2.222656 -3.890625 2.421875 -3.796875 C 2.617188 -3.710938 2.835938 -3.628906 3.078125 -3.546875 C 3.328125 -3.472656 3.5625 -3.390625 3.78125 -3.296875 C 4.007812 -3.203125 4.210938 -3.085938 4.390625 -2.953125 C 4.578125 -2.816406 4.722656 -2.648438 4.828125 -2.453125 C 4.929688 -2.265625 4.984375 -2.035156 4.984375 -1.765625 C 4.984375 -1.484375 4.925781 -1.226562 4.8125 -1 C 4.707031 -0.769531 4.554688 -0.570312 4.359375 -0.40625 C 4.160156 -0.238281 3.925781 -0.113281 3.65625 -0.03125 C 3.394531 0.0507812 3.101562 0.09375 2.78125 0.09375 Z M 2.78125 0.09375 "/></g></g></g><g fill="#545454" fill-opacity="1"><g transform="translate(148.852407, 205.192008)"><g><path d="M 0.234375 -5.328125 L 0.234375 -5.96875 C 0.234375 -6.082031 0.296875 -6.140625 0.421875 -6.140625 L 4.625 -6.140625 C 4.675781 -6.140625 4.71875 -6.125 4.75 -6.09375 C 4.78125 -6.0625 4.796875 -6.019531 4.796875 -5.96875 L 4.796875 -5.328125 C 4.796875 -5.203125 4.738281 -5.140625 4.625 -5.140625 L 3.078125 -5.140625 L 3.078125 -0.171875 C 3.078125 -0.0546875 3.019531 0 2.90625 0 L 2.125 0 C 2 0 1.9375 -0.0546875 1.9375 -0.171875 L 1.9375 -5.140625 L 0.421875 -5.140625 C 0.359375 -5.140625 0.3125 -5.15625 0.28125 -5.1875 C 0.25 -5.21875 0.234375 -5.265625 0.234375 -5.328125 Z M 0.234375 -5.328125 "/></g></g></g><g fill="#545454" fill-opacity="1"><g transform="translate(160.526048, 205.192008)"><g><path d="M 7.3125 -0.1875 C 7.320312 -0.113281 7.304688 -0.0625 7.265625 -0.03125 C 7.234375 -0.0078125 7.191406 0 7.140625 0 L 6.359375 0 C 6.296875 0 6.25 -0.0078125 6.21875 -0.03125 C 6.1875 -0.0625 6.171875 -0.109375 6.171875 -0.171875 L 5.875 -3.171875 L 4.046875 -0.078125 C 4.015625 -0.015625 3.984375 0.0234375 3.953125 0.046875 C 3.929688 0.078125 3.898438 0.09375 3.859375 0.09375 L 3.84375 0.09375 C 3.789062 0.09375 3.753906 0.078125 3.734375 0.046875 C 3.710938 0.0234375 3.679688 -0.015625 3.640625 -0.078125 L 1.828125 -3.171875 L 1.53125 -0.171875 C 1.519531 -0.109375 1.5 -0.0625 1.46875 -0.03125 C 1.445312 -0.0078125 1.40625 0 1.34375 0 L 0.5625 0 C 0.5 0 0.453125 -0.0078125 0.421875 -0.03125 C 0.390625 -0.0625 0.378906 -0.113281 0.390625 -0.1875 L 0.984375 -6.078125 C 0.984375 -6.179688 1.03125 -6.234375 1.125 -6.234375 L 1.15625 -6.234375 C 1.207031 -6.234375 1.238281 -6.21875 1.25 -6.1875 C 1.269531 -6.164062 1.296875 -6.132812 1.328125 -6.09375 L 3.84375 -1.8125 L 6.375 -6.09375 C 6.394531 -6.132812 6.414062 -6.164062 6.4375 -6.1875 C 6.457031 -6.21875 6.492188 -6.234375 6.546875 -6.234375 L 6.5625 -6.234375 C 6.65625 -6.234375 6.707031 -6.179688 6.71875 -6.078125 Z M 7.3125 -0.1875 "/></g></g></g><g fill="#545454" fill-opacity="1"><g transform="translate(174.858677, 205.192008)"><g><path d="M 5.1875 -1.078125 C 5.257812 -1.078125 5.316406 -1.054688 5.359375 -1.015625 C 5.398438 -0.984375 5.421875 -0.929688 5.421875 -0.859375 L 5.421875 -0.171875 C 5.421875 -0.117188 5.40625 -0.078125 5.375 -0.046875 C 5.34375 -0.015625 5.296875 0 5.234375 0 L 0.90625 0 C 0.789062 0 0.734375 -0.0546875 0.734375 -0.171875 L 0.734375 -5.953125 C 0.734375 -6.078125 0.789062 -6.140625 0.90625 -6.140625 L 5.15625 -6.140625 C 5.21875 -6.140625 5.265625 -6.125 5.296875 -6.09375 C 5.328125 -6.0625 5.34375 -6.019531 5.34375 -5.96875 L 5.34375 -5.25 C 5.34375 -5.125 5.28125 -5.0625 5.15625 -5.0625 L 1.875 -5.0625 L 1.875 -3.359375 L 4.4375 -3.359375 C 4.507812 -3.359375 4.5625 -3.34375 4.59375 -3.3125 C 4.632812 -3.28125 4.65625 -3.234375 4.65625 -3.171875 L 4.65625 -2.5 C 4.65625 -2.445312 4.632812 -2.398438 4.59375 -2.359375 C 4.5625 -2.328125 4.507812 -2.3125 4.4375 -2.3125 L 1.875 -2.3125 L 1.875 -1.078125 Z M 5.1875 -1.078125 "/></g></g></g><g fill="#545454" fill-opacity="1"><g transform="translate(187.333662, 205.192008)"><g><path d="M 6.0625 -6.15625 C 6.15625 -6.15625 6.203125 -6.109375 6.203125 -6.015625 L 6.203125 -0.109375 C 6.203125 -0.046875 6.1875 0 6.15625 0.03125 C 6.125 0.0625 6.085938 0.078125 6.046875 0.078125 L 6.03125 0.078125 C 5.976562 0.078125 5.9375 0.0625 5.90625 0.03125 C 5.875 0 5.832031 -0.03125 5.78125 -0.0625 L 1.875 -3.78125 L 1.875 -0.125 C 1.875 -0.0390625 1.832031 0 1.75 0 L 0.875 0 C 0.78125 0 0.734375 -0.0390625 0.734375 -0.125 L 0.734375 -6.046875 C 0.734375 -6.097656 0.742188 -6.140625 0.765625 -6.171875 C 0.796875 -6.203125 0.832031 -6.21875 0.875 -6.21875 L 0.890625 -6.21875 C 0.941406 -6.21875 0.984375 -6.203125 1.015625 -6.171875 C 1.046875 -6.148438 1.082031 -6.117188 1.125 -6.078125 L 5.0625 -2.34375 L 5.0625 -6.015625 C 5.0625 -6.109375 5.109375 -6.15625 5.203125 -6.15625 Z M 6.0625 -6.15625 "/></g></g></g><g fill="#545454" fill-opacity="1"><g transform="translate(200.905428, 205.192008)"><g><path d="M 0.234375 -5.328125 L 0.234375 -5.96875 C 0.234375 -6.082031 0.296875 -6.140625 0.421875 -6.140625 L 4.625 -6.140625 C 4.675781 -6.140625 4.71875 -6.125 4.75 -6.09375 C 4.78125 -6.0625 4.796875 -6.019531 4.796875 -5.96875 L 4.796875 -5.328125 C 4.796875 -5.203125 4.738281 -5.140625 4.625 -5.140625 L 3.078125 -5.140625 L 3.078125 -0.171875 C 3.078125 -0.0546875 3.019531 0 2.90625 0 L 2.125 0 C 2 0 1.9375 -0.0546875 1.9375 -0.171875 L 1.9375 -5.140625 L 0.421875 -5.140625 C 0.359375 -5.140625 0.3125 -5.15625 0.28125 -5.1875 C 0.25 -5.21875 0.234375 -5.265625 0.234375 -5.328125 Z M 0.234375 -5.328125 "/></g></g></g></svg>